<svg id="svg" version="1.1" xmlns="http://www.w3.org/2000/svg" xmlns:xlink="http://www.w3.org/1999/xlink" width="400" height="400" viewBox="0, 0, 400,400"><g id="svgg"><path id="path0" d="M132.350 93.100 C 131.846 93.925,131.291 94.660,131.117 94.733 C 130.943 94.807,130.800 95.049,130.800 95.271 C 130.800 95.493,130.023 96.693,129.074 97.938 C 126.929 100.749,121.613 107.524,120.707 108.600 C 119.852 109.616,113.651 117.588,112.636 118.976 C 112.216 119.551,111.451 120.476,110.936 121.031 C 110.421 121.587,110.000 122.212,110.000 122.421 C 110.000 122.658,131.642 122.800,167.843 122.800 C 218.117 122.800,225.657 122.876,225.464 123.378 C 225.342 123.696,223.482 126.171,221.332 128.878 C 219.181 131.585,217.279 133.980,217.105 134.200 C 216.931 134.420,214.156 137.930,210.938 142.000 C 207.721 146.070,201.731 153.630,197.628 158.800 C 193.524 163.970,187.924 171.051,185.183 174.536 C 182.443 178.020,179.075 182.286,177.700 184.016 C 176.325 185.745,175.200 187.259,175.200 187.380 C 175.200 188.073,208.895 187.584,209.792 186.878 C 210.296 186.481,214.093 181.936,218.228 176.778 C 222.363 171.620,225.852 167.310,225.982 167.200 C 226.113 167.090,227.203 165.740,228.404 164.200 C 229.606 162.660,230.820 161.159,231.101 160.865 C 231.382 160.571,232.104 159.671,232.706 158.865 C 233.308 158.059,233.989 157.198,234.220 156.952 C 234.450 156.705,235.530 155.387,236.620 154.022 C 237.709 152.657,240.040 149.787,241.800 147.643 C 243.560 145.500,245.630 142.966,246.400 142.012 C 247.170 141.058,249.928 137.651,252.529 134.439 C 255.130 131.228,257.470 128.326,257.729 127.991 C 260.092 124.935,263.128 121.216,263.926 120.400 C 264.464 119.850,265.193 118.950,265.547 118.400 C 266.275 117.269,269.371 113.351,270.353 112.319 C 271.123 111.509,270.993 111.667,275.333 106.271 C 279.201 101.463,279.550 101.038,280.415 100.081 C 280.753 99.706,281.553 98.680,282.193 97.800 C 282.832 96.920,283.677 95.840,284.070 95.400 C 284.463 94.960,285.238 94.096,285.792 93.479 C 286.347 92.863,286.800 92.188,286.800 91.979 C 286.800 91.742,258.164 91.600,210.033 91.600 L 133.265 91.600 132.350 93.100 M174.707 140.300 C 174.133 140.905,172.795 142.500,171.732 143.845 C 170.669 145.190,165.840 151.194,161.000 157.187 C 156.160 163.181,151.840 168.564,151.400 169.150 C 150.089 170.896,142.701 180.135,141.924 181.000 C 141.528 181.440,138.750 184.860,135.748 188.600 C 132.747 192.340,128.201 197.980,125.646 201.133 C 123.091 204.286,120.640 207.361,120.200 207.965 C 119.482 208.951,116.855 212.148,115.786 213.339 C 115.558 213.592,114.838 214.516,114.186 215.392 C 113.533 216.268,112.703 217.348,112.340 217.792 C 111.197 219.192,108.383 222.567,107.664 223.400 C 105.998 225.331,101.200 231.534,101.200 231.756 C 101.200 231.890,137.348 232.000,181.529 232.000 L 261.857 232.000 265.829 226.929 C 268.013 224.140,270.349 221.215,271.020 220.429 C 272.201 219.047,278.284 211.286,282.800 205.400 C 284.010 203.823,285.347 202.188,285.771 201.766 C 286.532 201.011,285.556 200.999,219.071 200.899 C 180.468 200.841,151.600 200.647,151.600 200.445 C 151.600 200.162,166.246 181.467,168.243 179.200 C 169.375 177.916,173.143 173.233,175.806 169.801 C 177.341 167.821,178.875 165.925,179.213 165.587 C 179.552 165.248,180.361 164.258,181.012 163.386 C 181.663 162.514,182.305 161.710,182.440 161.600 C 182.574 161.490,183.965 159.780,185.530 157.800 C 187.095 155.820,188.522 154.020,188.701 153.800 C 190.948 151.040,194.821 146.230,197.316 143.100 L 200.425 139.200 188.088 139.200 L 175.750 139.200 174.707 140.300 M165.500 260.300 L 150.000 260.409 150.000 282.805 L 150.000 305.200 165.800 305.200 L 181.600 305.200 181.600 301.206 L 181.600 297.213 170.700 297.106 L 159.800 297.000 159.800 292.000 L 159.800 287.000 169.700 286.893 L 179.600 286.786 179.600 282.893 L 179.600 279.000 169.700 279.000 L 159.800 279.000 159.800 273.800 L 159.800 268.600 170.500 268.493 L 181.200 268.387 181.200 264.193 C 181.200 261.887,181.155 260.043,181.100 260.095 C 181.045 260.148,174.025 260.240,165.500 260.300 M57.200 264.600 L 57.200 268.800 67.400 268.800 C 73.010 268.800,77.600 268.944,77.600 269.120 C 77.600 269.296,76.790 270.553,75.800 271.914 C 74.810 273.274,74.000 274.472,74.000 274.575 C 74.000 274.679,73.126 275.933,72.057 277.362 C 70.989 278.792,68.874 281.769,67.357 283.979 C 64.644 287.934,63.052 290.207,58.904 296.048 C 56.812 298.995,56.809 299.005,56.804 302.104 L 56.800 305.208 74.500 305.104 L 92.200 305.000 92.200 301.200 L 92.200 297.400 81.254 297.200 L 70.308 297.000 74.537 290.800 C 80.827 281.578,83.824 277.273,85.813 274.600 C 86.796 273.280,87.726 271.930,87.880 271.600 C 88.035 271.270,88.935 269.982,89.880 268.738 C 91.557 266.532,91.600 266.399,91.600 263.438 L 91.600 260.400 74.400 260.400 L 57.200 260.400 57.200 264.600 M114.207 260.789 C 113.936 261.227,112.687 264.783,111.744 267.800 C 111.400 268.900,110.966 269.987,110.780 270.216 C 110.594 270.444,110.265 271.344,110.049 272.216 C 109.833 273.087,108.278 277.490,106.595 282.000 C 104.911 286.510,103.264 291.010,102.935 292.000 C 102.606 292.990,102.170 294.160,101.968 294.600 C 101.765 295.040,101.340 296.210,101.024 297.200 C 99.977 300.478,98.868 303.526,98.410 304.381 C 97.961 305.220,97.978 305.223,103.228 305.112 L 108.497 305.000 109.982 300.600 L 111.468 296.200 120.406 296.092 C 130.224 295.974,129.810 295.870,130.600 298.641 C 130.908 299.718,131.502 301.590,131.920 302.800 L 132.680 305.000 137.407 305.113 C 143.362 305.256,143.204 305.537,140.755 299.170 C 139.620 296.216,138.367 292.900,137.970 291.800 C 137.574 290.700,136.777 288.540,136.199 287.000 C 135.621 285.460,134.951 283.480,134.711 282.600 C 134.471 281.720,134.032 280.645,133.737 280.211 C 133.442 279.777,133.200 279.174,133.200 278.871 C 133.200 278.569,132.933 277.754,132.607 277.060 C 132.280 276.367,131.755 274.990,131.440 274.000 C 131.125 273.010,130.399 270.940,129.828 269.400 C 129.257 267.860,128.318 265.205,127.742 263.500 L 126.694 260.400 120.571 260.400 C 117.034 260.400,114.346 260.564,114.207 260.789 M189.600 264.400 L 189.600 268.400 196.400 268.400 L 203.200 268.400 203.200 286.813 L 203.200 305.225 207.900 305.113 L 212.600 305.000 212.800 286.800 L 213.000 268.600 219.700 268.490 L 226.400 268.381 226.400 264.390 L 226.400 260.400 208.000 260.400 L 189.600 260.400 189.600 264.400 M235.297 282.700 L 235.400 305.000 240.100 305.113 L 244.800 305.225 244.800 297.213 L 244.800 289.200 248.561 289.200 L 252.322 289.200 254.554 292.900 C 255.781 294.935,257.934 298.490,259.338 300.800 L 261.891 305.000 267.145 305.112 C 272.883 305.233,273.180 305.099,271.600 303.091 C 271.160 302.531,270.800 301.964,270.800 301.831 C 270.800 301.609,269.427 299.171,267.400 295.796 C 266.960 295.064,265.910 293.281,265.068 291.836 C 264.225 290.390,263.370 289.105,263.168 288.980 C 262.396 288.503,262.876 287.973,265.100 286.842 C 275.479 281.563,274.579 264.738,263.761 261.821 C 262.462 261.471,260.847 261.008,260.172 260.792 C 259.483 260.572,253.728 260.400,247.068 260.400 L 235.193 260.400 235.297 282.700 M282.000 282.800 L 282.000 305.200 286.600 305.200 L 291.200 305.200 291.200 282.800 L 291.200 260.400 286.600 260.400 L 282.000 260.400 282.000 282.800 M300.400 260.627 C 300.400 260.842,302.355 263.578,302.811 264.000 C 302.930 264.110,303.887 265.417,304.938 266.905 C 305.988 268.393,307.242 270.042,307.724 270.570 C 308.206 271.098,308.870 271.918,309.200 272.394 C 309.530 272.869,311.190 275.090,312.888 277.329 C 316.727 282.390,316.929 281.199,310.781 289.745 C 302.305 301.530,300.000 304.794,300.000 305.014 C 300.000 305.128,302.553 305.172,305.672 305.111 L 311.345 305.000 313.772 301.328 C 315.108 299.308,316.920 296.459,317.800 294.997 C 318.680 293.534,319.592 292.126,319.826 291.869 C 320.060 291.611,320.436 291.069,320.662 290.664 C 321.252 289.606,321.688 290.124,327.070 298.281 L 331.636 305.200 337.418 305.200 C 343.610 305.200,343.817 305.119,342.373 303.263 C 341.918 302.678,340.309 300.490,338.797 298.400 C 337.285 296.310,335.395 293.700,334.596 292.600 C 330.007 286.278,327.600 282.765,327.600 282.390 C 327.600 282.034,331.357 276.358,336.859 268.400 C 341.139 262.210,342.000 260.916,342.000 260.672 C 342.000 260.523,339.568 260.400,336.595 260.400 L 331.190 260.400 329.722 262.695 C 328.914 263.958,328.104 265.173,327.921 265.395 C 327.466 265.950,326.115 268.050,323.997 271.500 C 322.046 274.677,321.531 274.949,320.598 273.300 C 319.901 272.068,319.851 271.991,315.400 265.269 L 312.200 260.437 306.300 260.418 C 303.055 260.408,300.400 260.502,300.400 260.627 M258.383 268.747 C 261.530 269.790,262.200 270.857,262.200 274.822 C 262.200 280.238,260.358 281.193,249.900 281.198 L 244.800 281.200 244.800 274.600 L 244.800 268.000 250.500 268.011 C 254.907 268.020,256.695 268.187,258.383 268.747 M122.858 274.328 C 123.887 277.337,125.278 281.330,125.950 283.200 C 127.824 288.412,128.285 288.000,120.568 288.000 L 113.936 288.000 114.219 286.713 C 114.375 286.005,114.649 285.150,114.828 284.813 C 115.201 284.112,116.588 279.952,117.433 277.000 C 117.748 275.900,118.274 274.433,118.603 273.740 C 118.931 273.046,119.200 272.174,119.200 271.800 C 119.200 270.877,120.445 268.312,120.747 268.613 C 120.880 268.746,121.830 271.318,122.858 274.328 " stroke="none" fill="#062b5a" fill-rule="evenodd"></path><path id="path1" d="M0.000 200.000 L 0.000 400.000 200.000 400.000 L 400.000 400.000 400.000 200.000 L 400.000 0.000 200.000 0.000 L 0.000 0.000 0.000 200.000 M287.600 91.581 C 287.600 91.790,283.963 96.425,279.518 101.881 C 275.073 107.336,268.309 115.670,264.486 120.400 C 260.663 125.130,257.231 129.360,256.859 129.800 C 256.195 130.587,248.117 140.548,244.200 145.411 C 243.100 146.777,240.681 149.763,238.824 152.047 C 236.967 154.331,233.188 158.990,230.425 162.400 C 227.663 165.810,225.103 168.960,224.736 169.400 C 222.590 171.974,213.209 183.748,212.200 185.133 C 210.067 188.063,210.516 188.000,191.640 188.000 C 173.647 188.000,173.863 188.026,175.500 186.098 C 175.885 185.644,177.460 183.617,179.000 181.592 C 180.540 179.567,182.790 176.706,184.000 175.234 C 185.210 173.762,186.650 171.952,187.200 171.211 C 187.750 170.470,188.813 169.130,189.562 168.232 C 190.311 167.334,191.872 165.340,193.032 163.800 C 194.191 162.260,195.558 160.521,196.070 159.936 C 197.867 157.880,199.804 155.477,200.200 154.811 C 200.420 154.442,200.819 153.883,201.086 153.570 C 202.471 151.947,204.224 149.779,207.371 145.800 C 209.285 143.380,211.154 141.045,211.525 140.611 C 211.896 140.178,212.380 139.522,212.600 139.154 C 212.820 138.786,213.664 137.701,214.475 136.743 C 217.310 133.394,224.788 123.797,224.794 123.500 C 224.797 123.335,198.891 123.200,167.224 123.200 C 132.546 123.200,109.557 123.053,109.419 122.831 C 109.294 122.629,110.237 121.144,111.515 119.531 C 112.793 117.919,114.801 115.357,115.977 113.838 C 117.152 112.319,118.346 110.789,118.628 110.438 C 118.911 110.087,120.377 108.270,121.886 106.400 C 125.445 101.989,130.284 95.478,131.780 93.086 L 132.960 91.200 210.280 91.200 C 258.943 91.200,287.600 91.341,287.600 91.581 M200.800 139.311 C 200.800 139.592,200.485 140.097,200.100 140.433 C 199.715 140.770,199.040 141.550,198.600 142.169 C 197.732 143.388,197.550 143.618,194.112 147.837 C 186.202 157.544,177.197 168.731,176.000 170.338 C 174.854 171.876,170.675 177.125,167.511 181.000 C 166.742 181.942,159.918 190.429,155.501 195.936 C 153.796 198.061,152.401 199.935,152.401 200.100 C 152.400 200.265,182.640 200.400,219.600 200.400 C 265.948 200.400,286.800 200.529,286.800 200.817 C 286.800 201.046,286.613 201.451,286.384 201.717 C 285.655 202.564,277.440 212.962,276.400 214.354 C 275.850 215.091,274.933 216.257,274.362 216.947 C 271.980 219.821,265.267 228.353,263.855 230.300 L 262.332 232.400 181.366 232.400 C 136.835 232.400,100.400 232.262,100.400 232.093 C 100.400 231.925,102.134 229.630,104.253 226.993 C 106.372 224.357,109.279 220.715,110.714 218.900 C 112.148 217.085,113.474 215.600,113.661 215.600 C 113.847 215.600,114.000 215.426,114.000 215.214 C 114.000 214.895,123.644 202.640,124.398 202.000 C 124.604 201.826,126.610 199.315,128.925 196.334 C 130.737 194.001,131.895 192.588,133.093 191.247 C 133.804 190.451,134.491 189.485,134.620 189.100 C 134.749 188.715,135.000 188.400,135.178 188.400 C 135.357 188.400,136.501 187.075,137.720 185.455 C 138.939 183.835,140.361 182.051,140.881 181.491 C 141.401 180.930,142.270 179.886,142.813 179.172 C 144.305 177.208,147.345 173.405,148.011 172.671 C 148.335 172.313,148.960 171.551,149.400 170.978 C 149.840 170.405,150.389 169.725,150.619 169.468 C 150.850 169.211,152.374 167.290,154.005 165.200 C 156.493 162.013,159.480 158.294,161.707 155.612 C 162.131 155.102,165.063 151.452,173.202 141.300 L 175.207 138.800 188.003 138.800 C 198.122 138.800,200.800 138.907,200.800 139.311 M91.916 263.106 L 92.033 266.413 89.343 270.306 C 87.863 272.448,85.885 275.280,84.947 276.600 C 83.256 278.977,78.555 285.774,73.668 292.905 L 71.136 296.600 81.868 296.800 L 92.600 297.000 92.600 301.200 L 92.600 305.400 74.600 305.400 L 56.600 305.400 56.486 301.991 L 56.372 298.583 57.974 296.391 C 58.855 295.186,59.725 294.020,59.907 293.800 C 60.088 293.580,61.296 291.870,62.590 290.000 C 63.884 288.130,65.856 285.330,66.972 283.778 C 68.087 282.227,69.180 280.668,69.400 280.315 C 69.620 279.962,71.283 277.578,73.096 275.018 C 74.909 272.457,76.580 270.011,76.810 269.581 C 77.220 268.816,77.023 268.800,67.014 268.800 L 56.800 268.800 56.800 264.196 L 56.800 259.592 74.300 259.696 L 91.800 259.800 91.916 263.106 M128.220 263.400 C 128.920 265.380,129.606 267.270,129.743 267.600 C 129.881 267.930,130.253 269.010,130.570 270.000 C 130.888 270.990,131.621 273.060,132.199 274.600 C 133.860 279.025,134.804 281.659,135.424 283.600 C 135.740 284.590,136.176 285.760,136.392 286.200 C 136.776 286.983,138.445 291.431,141.634 300.174 C 143.728 305.914,143.933 305.647,137.527 305.512 L 132.237 305.400 130.819 300.893 L 129.400 296.385 120.627 296.493 L 111.855 296.600 110.365 301.000 L 108.875 305.400 103.759 305.513 C 100.945 305.574,98.428 305.543,98.165 305.442 C 97.685 305.258,98.743 301.266,99.543 300.243 C 99.734 299.999,100.017 299.260,100.174 298.600 C 100.330 297.940,101.315 295.060,102.364 292.200 C 103.413 289.340,105.490 283.580,106.980 279.400 C 108.469 275.220,109.848 271.440,110.044 271.000 C 110.473 270.035,111.882 265.939,112.452 264.000 C 112.678 263.230,113.164 261.926,113.532 261.102 L 114.200 259.605 120.574 259.702 L 126.948 259.800 128.220 263.400 M181.513 264.300 L 181.626 268.800 170.813 268.800 L 160.000 268.800 160.000 273.593 L 160.000 278.386 169.900 278.493 L 179.800 278.600 179.914 282.900 L 180.027 287.200 170.014 287.200 L 160.000 287.200 160.000 292.000 L 160.000 296.800 171.214 296.800 L 182.427 296.800 182.314 301.100 L 182.200 305.400 166.100 305.505 L 150.000 305.609 150.000 282.600 L 150.000 259.591 165.700 259.695 L 181.400 259.800 181.513 264.300 M226.713 264.300 L 226.826 268.800 220.017 268.800 L 213.208 268.800 213.104 287.100 L 213.000 305.400 208.000 305.400 L 203.000 305.400 202.896 287.100 L 202.792 268.800 195.996 268.800 L 189.200 268.800 189.200 264.467 C 189.200 262.083,189.322 260.012,189.471 259.863 C 189.619 259.714,198.034 259.639,208.171 259.696 L 226.600 259.800 226.713 264.300 M257.905 259.971 C 258.287 260.175,259.895 260.535,261.477 260.771 C 274.554 262.720,277.228 282.336,265.100 287.340 C 263.524 287.990,263.205 288.774,264.185 289.587 C 264.506 289.854,264.884 290.435,265.025 290.877 C 265.272 291.657,266.760 294.090,267.600 295.089 C 267.827 295.359,268.186 295.989,268.399 296.489 C 268.612 296.990,269.230 298.120,269.773 299.000 C 271.931 302.497,273.171 304.924,272.967 305.254 C 272.849 305.444,270.248 305.600,267.187 305.600 L 261.621 305.600 260.949 304.302 C 260.580 303.588,259.698 302.103,258.990 301.002 C 258.281 299.901,256.398 296.885,254.806 294.300 L 251.911 289.600 248.564 289.600 L 245.217 289.600 245.108 297.500 L 245.000 305.400 239.900 305.512 L 234.800 305.624 234.800 282.879 C 234.800 270.369,234.920 260.013,235.067 259.867 C 235.480 259.453,257.122 259.552,257.905 259.971 M291.554 260.145 C 291.882 260.539,291.978 266.868,291.903 283.045 L 291.800 305.400 286.600 305.400 L 281.400 305.400 281.296 283.000 C 281.239 270.680,281.278 260.375,281.384 260.100 C 281.668 259.357,290.934 259.398,291.554 260.145 M312.767 260.700 C 313.220 261.305,313.731 261.980,313.901 262.200 C 314.071 262.420,315.898 265.165,317.961 268.300 C 320.024 271.435,321.758 274.000,321.815 274.000 C 321.871 274.000,322.782 272.605,323.838 270.900 C 324.895 269.195,325.904 267.740,326.080 267.667 C 326.256 267.593,326.400 267.361,326.400 267.150 C 326.400 266.940,326.732 266.280,327.137 265.684 C 327.543 265.088,328.392 263.790,329.024 262.800 C 331.113 259.526,330.930 259.600,336.960 259.600 C 340.289 259.600,342.452 259.760,342.612 260.019 C 342.865 260.429,341.155 263.139,335.805 270.800 C 334.346 272.890,331.976 276.336,330.540 278.459 L 327.927 282.317 328.661 283.459 C 329.454 284.695,329.536 284.809,330.905 286.600 C 331.410 287.260,332.354 288.610,333.005 289.600 C 333.655 290.590,334.910 292.335,335.793 293.477 C 336.677 294.620,338.300 296.822,339.400 298.372 C 340.500 299.921,341.995 302.003,342.721 302.998 C 344.556 305.510,344.381 305.600,337.646 305.600 C 330.614 305.600,331.844 306.454,325.948 297.479 C 320.961 289.889,321.439 290.090,318.748 294.450 C 317.787 296.008,315.768 299.153,314.263 301.441 L 311.527 305.600 305.587 305.600 C 302.320 305.600,299.563 305.465,299.461 305.299 C 299.270 304.989,309.355 290.584,314.132 284.344 C 316.002 281.901,316.395 282.826,309.742 274.010 C 306.694 269.971,303.681 265.931,303.046 265.033 C 302.411 264.135,301.466 262.891,300.946 262.269 C 298.894 259.816,299.301 259.600,305.971 259.600 L 311.942 259.600 312.767 260.700 M245.200 274.530 L 245.200 280.754 250.300 280.877 C 253.105 280.945,255.571 280.865,255.780 280.700 C 255.989 280.535,256.547 280.400,257.020 280.400 C 260.117 280.400,262.660 277.388,262.296 274.152 C 262.088 272.307,260.374 269.600,259.413 269.600 C 259.113 269.600,258.794 269.381,258.705 269.114 C 258.589 268.768,256.628 268.582,251.871 268.467 L 245.200 268.306 245.200 274.530 M119.236 273.172 C 118.512 275.497,117.668 277.967,117.360 278.660 C 117.052 279.354,116.796 280.254,116.791 280.660 C 116.786 281.067,116.434 282.167,116.008 283.106 C 115.583 284.044,115.116 285.439,114.973 286.206 L 114.711 287.600 120.763 287.600 L 126.815 287.600 126.545 286.500 C 126.397 285.895,125.836 284.230,125.298 282.800 C 124.760 281.370,123.472 277.667,122.436 274.572 L 120.553 268.944 119.236 273.172 " stroke="none" fill="#fbfbfb" fill-rule="evenodd"></path><path id="path2" d="M138.731 123.100 C 154.644 123.158,180.564 123.158,196.331 123.100 C 212.099 123.042,199.080 122.995,167.400 122.995 C 135.720 122.995,122.819 123.042,138.731 123.100 M181.500 139.099 C 184.635 139.167,189.765 139.167,192.900 139.099 C 196.035 139.032,193.470 138.976,187.200 138.976 C 180.930 138.976,178.365 139.032,181.500 139.099 M181.348 264.400 C 181.348 266.710,181.414 267.655,181.495 266.500 C 181.576 265.345,181.576 263.455,181.495 262.300 C 181.414 261.145,181.348 262.090,181.348 264.400 M91.720 264.000 C 91.720 265.210,91.795 265.705,91.887 265.100 C 91.978 264.495,91.978 263.505,91.887 262.900 C 91.795 262.295,91.720 262.790,91.720 264.000 M272.524 274.600 C 272.526 275.920,272.601 276.412,272.690 275.693 C 272.779 274.974,272.777 273.894,272.686 273.293 C 272.595 272.692,272.522 273.280,272.524 274.600 M179.746 283.000 C 179.747 285.200,179.814 286.049,179.895 284.887 C 179.976 283.724,179.976 281.924,179.893 280.887 C 179.811 279.849,179.745 280.800,179.746 283.000 M76.124 297.099 C 79.162 297.167,84.022 297.167,86.924 297.099 C 89.826 297.031,87.340 296.975,81.400 296.975 C 75.460 296.975,73.086 297.031,76.124 297.099 M92.546 301.400 C 92.547 303.600,92.614 304.449,92.695 303.287 C 92.776 302.124,92.776 300.324,92.693 299.287 C 92.611 298.249,92.545 299.200,92.546 301.400 M56.534 302.000 C 56.534 303.650,56.605 304.325,56.691 303.500 C 56.778 302.675,56.778 301.325,56.691 300.500 C 56.605 299.675,56.534 300.350,56.534 302.000 " stroke="none" fill="#9eabbb" fill-rule="evenodd"></path><path id="path3" d="M174.175 140.100 L 173.000 141.400 174.398 140.200 C 175.167 139.540,175.872 138.955,175.965 138.900 C 176.057 138.845,175.957 138.800,175.742 138.800 C 175.526 138.800,174.821 139.385,174.175 140.100 M182.000 177.600 C 181.530 178.260,181.236 178.800,181.346 178.800 C 181.456 178.800,181.930 178.260,182.400 177.600 C 182.870 176.940,183.164 176.400,183.054 176.400 C 182.944 176.400,182.470 176.940,182.000 177.600 M169.199 178.500 C 168.610 179.304,168.513 179.584,168.945 179.233 C 169.601 178.700,170.593 177.200,170.289 177.200 C 170.213 177.200,169.722 177.785,169.199 178.500 M183.927 187.900 C 188.617 187.964,196.177 187.964,200.727 187.899 C 205.277 187.835,201.440 187.783,192.200 187.783 C 182.960 187.783,179.237 187.836,183.927 187.900 M73.979 259.898 C 87.242 259.982,91.441 260.126,91.710 260.504 C 91.967 260.868,92.017 260.840,91.897 260.400 C 91.755 259.878,89.438 259.799,74.167 259.793 L 56.600 259.787 73.979 259.898 M116.000 259.871 C 121.323 260.160,127.111 260.175,126.939 259.900 C 126.837 259.735,123.838 259.634,120.276 259.676 C 116.714 259.717,114.790 259.805,116.000 259.871 M155.400 259.887 C 169.635 260.167,181.508 260.173,181.339 259.900 C 181.236 259.735,174.098 259.640,165.476 259.688 C 156.854 259.737,152.320 259.826,155.400 259.887 M189.373 260.127 C 189.261 260.417,189.229 262.532,189.301 264.827 L 189.431 269.000 189.516 264.504 L 189.600 260.008 208.100 259.900 L 226.600 259.792 208.087 259.696 C 193.072 259.618,189.537 259.700,189.373 260.127 M240.700 259.899 C 243.835 259.967,248.965 259.967,252.100 259.899 C 255.235 259.832,252.670 259.776,246.400 259.776 C 240.130 259.776,237.565 259.832,240.700 259.899 M281.384 260.100 C 281.278 260.375,281.239 270.680,281.296 283.000 L 281.400 305.400 286.600 305.400 L 291.800 305.400 291.805 283.000 L 291.810 260.600 291.702 282.900 L 291.593 305.200 286.597 305.200 L 281.600 305.200 281.600 282.612 L 281.600 260.025 286.500 259.899 L 291.400 259.773 286.487 259.686 C 282.860 259.623,281.525 259.731,281.384 260.100 M302.900 259.897 C 304.605 259.972,307.395 259.972,309.100 259.897 C 310.805 259.822,309.410 259.761,306.000 259.761 C 302.590 259.761,301.195 259.822,302.900 259.897 M333.900 259.897 C 335.495 259.973,338.105 259.973,339.700 259.897 C 341.295 259.821,339.990 259.759,336.800 259.759 C 333.610 259.759,332.305 259.821,333.900 259.897 M268.400 264.200 C 269.146 264.970,269.847 265.600,269.957 265.600 C 270.067 265.600,269.546 264.970,268.800 264.200 C 268.054 263.430,267.353 262.800,267.243 262.800 C 267.133 262.800,267.654 263.430,268.400 264.200 M244.984 274.700 L 245.000 281.000 250.000 281.020 L 255.000 281.040 250.110 280.908 L 245.220 280.776 245.094 274.587 L 244.969 268.399 244.984 274.700 M203.000 287.100 L 203.000 305.400 207.800 305.418 L 212.600 305.437 207.904 305.306 L 203.208 305.175 203.104 286.988 L 203.000 268.800 203.000 287.100 M163.200 278.680 C 171.604 278.964,179.909 278.974,179.739 278.700 C 179.637 278.535,175.108 278.437,169.676 278.482 C 164.244 278.527,161.330 278.616,163.200 278.680 M268.575 284.900 L 267.400 286.200 268.700 285.025 C 269.415 284.379,270.000 283.794,270.000 283.725 C 270.000 283.416,269.670 283.688,268.575 284.900 M114.406 287.300 C 114.401 287.941,114.931 287.993,120.700 287.912 L 127.000 287.823 121.017 287.700 C 116.856 287.615,114.939 287.429,114.723 287.089 C 114.507 286.749,114.410 286.814,114.406 287.300 M244.891 297.288 L 244.800 305.176 239.700 305.301 L 234.600 305.426 239.713 305.513 C 245.841 305.617,245.249 306.554,245.100 296.988 L 244.981 289.400 244.891 297.288 M111.861 296.300 C 111.758 296.465,114.313 296.554,117.537 296.497 C 128.358 296.306,129.463 296.162,120.724 296.080 C 115.952 296.036,111.963 296.135,111.861 296.300 M182.084 300.895 L 182.000 305.191 165.900 305.300 L 149.800 305.409 165.913 305.505 C 178.964 305.582,182.064 305.500,182.228 305.072 C 182.339 304.781,182.371 302.756,182.299 300.572 L 182.167 296.600 182.084 300.895 M272.627 304.521 C 272.885 305.199,272.551 305.235,267.088 305.121 C 263.891 305.055,261.358 305.135,261.461 305.300 C 261.563 305.465,264.146 305.600,267.200 305.600 C 272.705 305.600,273.885 305.320,272.821 304.265 C 272.464 303.910,272.418 303.971,272.627 304.521 M343.419 304.500 C 343.665 305.146,343.208 305.207,337.543 305.288 L 331.400 305.377 337.369 305.500 C 343.379 305.623,344.729 305.365,343.656 304.300 C 343.252 303.899,343.205 303.939,343.419 304.500 M108.800 304.754 C 108.800 305.121,107.412 305.212,103.237 305.121 C 100.178 305.054,97.758 305.135,97.861 305.300 C 98.160 305.782,108.714 305.662,109.016 305.173 C 109.161 304.939,109.172 304.639,109.040 304.507 C 108.908 304.375,108.800 304.486,108.800 304.754 M299.478 304.656 C 299.337 304.796,299.317 305.066,299.434 305.256 C 299.695 305.677,311.478 305.720,311.739 305.300 C 311.841 305.135,309.136 305.054,305.727 305.120 C 301.472 305.202,299.610 305.108,299.788 304.820 C 300.074 304.357,299.880 304.254,299.478 304.656 M56.744 305.304 C 56.911 305.472,65.048 305.561,74.824 305.504 L 92.600 305.400 74.520 305.200 C 64.576 305.090,56.577 305.137,56.744 305.304 M132.351 305.312 C 132.524 305.484,134.990 305.574,137.832 305.511 L 143.000 305.397 137.519 305.198 C 134.504 305.089,132.179 305.141,132.351 305.312 " stroke="none" fill="#bcbcc4" fill-rule="evenodd"></path><path id="path4" d="M133.062 91.500 C 132.859 91.828,287.203 91.730,287.531 91.402 C 287.642 91.291,252.974 91.200,210.490 91.200 C 168.007 91.200,133.164 91.335,133.062 91.500 M282.436 97.500 C 281.452 98.938,281.392 99.108,282.188 98.200 C 283.246 96.992,284.153 95.600,283.882 95.600 C 283.801 95.600,283.151 96.455,282.436 97.500 M128.175 98.668 C 127.559 99.476,127.259 100.011,127.509 99.856 C 128.021 99.540,129.753 97.200,129.475 97.200 C 129.376 97.200,128.791 97.861,128.175 98.668 M121.923 106.700 C 121.218 107.521,120.690 108.400,120.901 108.400 C 120.983 108.400,121.449 107.860,121.937 107.200 C 122.901 105.896,122.892 105.572,121.923 106.700 M268.975 113.868 C 268.359 114.676,268.059 115.211,268.309 115.056 C 268.821 114.740,270.553 112.400,270.275 112.400 C 270.176 112.400,269.591 113.061,268.975 113.868 M266.929 116.500 C 266.484 116.995,265.976 117.670,265.801 118.000 C 265.463 118.637,265.555 118.550,267.176 116.700 C 267.706 116.095,268.049 115.600,267.939 115.600 C 267.829 115.600,267.375 116.005,266.929 116.500 M262.226 122.300 C 261.362 123.405,261.293 123.590,261.963 123.004 C 262.765 122.304,263.823 120.800,263.514 120.800 C 263.451 120.800,262.872 121.475,262.226 122.300 M259.600 125.600 C 258.903 126.480,258.423 127.200,258.533 127.200 C 258.643 127.200,259.303 126.480,260.000 125.600 C 260.697 124.720,261.177 124.000,261.067 124.000 C 260.957 124.000,260.297 124.720,259.600 125.600 M195.600 145.200 C 194.903 146.080,194.423 146.800,194.533 146.800 C 194.643 146.800,195.303 146.080,196.000 145.200 C 196.697 144.320,197.177 143.600,197.067 143.600 C 196.957 143.600,196.297 144.320,195.600 145.200 M155.120 164.100 C 153.753 165.788,152.689 167.403,153.473 166.600 C 154.345 165.707,156.883 162.400,156.696 162.400 C 156.586 162.400,155.877 163.165,155.120 164.100 M149.983 170.500 C 149.240 171.435,148.948 171.946,149.335 171.636 C 150.063 171.051,151.777 168.800,151.494 168.800 C 151.406 168.800,150.726 169.565,149.983 170.500 M169.923 177.100 C 169.218 177.921,168.690 178.800,168.901 178.800 C 168.983 178.800,169.449 178.260,169.937 177.600 C 170.901 176.296,170.892 175.972,169.923 177.100 M167.026 180.700 C 166.162 181.805,166.093 181.990,166.763 181.404 C 167.565 180.704,168.623 179.200,168.314 179.200 C 168.251 179.200,167.672 179.875,167.026 180.700 M179.375 181.468 C 178.759 182.276,178.459 182.811,178.709 182.656 C 179.221 182.340,180.953 180.000,180.675 180.000 C 180.576 180.000,179.991 180.661,179.375 181.468 M164.155 184.281 C 163.307 185.316,162.822 186.034,163.077 185.876 C 163.621 185.540,166.155 182.400,165.882 182.400 C 165.780 182.400,165.003 183.247,164.155 184.281 M161.932 187.100 C 160.116 189.249,158.257 191.721,158.621 191.502 C 159.102 191.214,162.940 186.400,162.689 186.400 C 162.598 186.400,162.258 186.715,161.932 187.100 M151.600 200.500 C 151.600 200.665,181.975 200.756,219.100 200.703 C 256.225 200.650,275.710 200.560,262.400 200.503 C 198.161 200.230,151.600 200.229,151.600 200.500 M284.399 203.300 C 283.810 204.104,283.713 204.384,284.145 204.033 C 284.801 203.500,285.793 202.000,285.489 202.000 C 285.413 202.000,284.922 202.585,284.399 203.300 M118.783 209.300 C 118.040 210.235,117.748 210.746,118.135 210.436 C 118.863 209.851,120.577 207.600,120.294 207.600 C 120.206 207.600,119.526 208.365,118.783 209.300 M110.800 219.200 C 110.103 220.080,109.623 220.800,109.733 220.800 C 109.843 220.800,110.503 220.080,111.200 219.200 C 111.897 218.320,112.377 217.600,112.267 217.600 C 112.157 217.600,111.497 218.320,110.800 219.200 M262.158 231.602 C 261.891 231.869,234.793 231.970,181.278 231.902 C 137.015 231.846,100.800 231.935,100.800 232.100 C 100.800 232.752,261.858 232.453,262.400 231.800 C 262.958 231.127,262.779 230.981,262.158 231.602 M56.885 264.500 L 56.970 269.000 57.098 264.704 L 57.227 260.408 74.513 260.300 L 91.800 260.191 74.300 260.096 L 56.800 260.000 56.885 264.500 M113.999 260.290 C 113.999 260.461,116.864 260.547,120.366 260.481 C 125.312 260.389,126.772 260.478,126.906 260.881 C 127.015 261.213,127.061 261.183,127.033 260.800 C 126.986 260.148,114.001 259.640,113.999 260.290 M157.474 260.299 C 161.694 260.364,168.714 260.364,173.074 260.300 C 177.433 260.235,173.980 260.182,165.400 260.182 C 156.820 260.182,153.253 260.235,157.474 260.299 M208.000 260.298 L 226.400 260.408 226.400 264.394 L 226.400 268.381 219.700 268.490 L 213.000 268.600 212.994 286.500 L 212.988 304.400 213.098 286.610 L 213.208 268.819 219.904 268.710 L 226.600 268.600 226.600 264.400 L 226.600 260.200 208.100 260.194 L 189.600 260.188 208.000 260.298 M235.067 260.267 C 234.697 260.637,234.729 304.709,235.100 304.938 C 235.265 305.040,235.352 295.064,235.293 282.768 L 235.187 260.412 246.493 260.300 L 257.800 260.187 246.567 260.094 C 240.388 260.042,235.213 260.120,235.067 260.267 M281.697 282.700 L 281.793 305.400 281.900 282.900 L 282.007 260.400 286.600 260.400 L 291.193 260.400 291.300 282.900 L 291.407 305.400 291.503 282.700 L 291.600 260.000 286.600 260.000 L 281.600 260.000 281.697 282.700 M299.999 260.300 C 299.999 260.465,301.844 260.552,304.099 260.494 C 311.554 260.302,312.283 260.149,306.100 260.074 C 302.745 260.033,300.000 260.135,299.999 260.300 M330.768 260.700 C 330.318 261.296,330.322 261.325,330.799 260.900 C 331.715 260.083,342.163 260.197,341.847 261.021 C 341.711 261.377,341.778 261.537,342.005 261.397 C 342.222 261.263,342.400 260.893,342.400 260.576 C 342.400 259.625,331.494 259.741,330.768 260.700 M260.000 260.782 C 260.330 261.005,260.945 261.191,261.367 261.194 C 262.390 261.202,262.071 260.973,260.600 260.644 C 259.724 260.448,259.562 260.485,260.000 260.782 M267.200 263.325 C 267.200 263.394,267.785 263.979,268.500 264.625 L 269.800 265.800 268.625 264.500 C 267.530 263.288,267.200 263.016,267.200 263.325 M247.700 268.297 C 249.405 268.372,252.195 268.372,253.900 268.297 C 255.605 268.222,254.210 268.161,250.800 268.161 C 247.390 268.161,245.995 268.222,247.700 268.297 M159.774 268.923 C 159.664 269.211,159.624 271.596,159.687 274.223 L 159.800 279.000 169.400 279.011 L 179.000 279.021 169.500 278.904 L 160.000 278.786 160.000 273.799 L 160.000 268.813 170.700 268.700 L 181.400 268.586 170.687 268.493 C 162.165 268.419,159.934 268.507,159.774 268.923 M192.900 268.698 C 194.825 268.771,197.975 268.771,199.900 268.698 C 201.825 268.625,200.250 268.565,196.400 268.565 C 192.550 268.565,190.975 268.625,192.900 268.698 M119.579 270.255 C 119.358 270.836,119.252 271.385,119.343 271.476 C 119.433 271.567,119.699 271.092,119.933 270.420 C 120.453 268.928,120.139 268.782,119.579 270.255 M122.572 274.600 C 122.729 275.260,123.029 275.976,123.239 276.191 C 123.450 276.406,123.410 275.956,123.151 275.191 C 122.546 273.400,122.205 273.052,122.572 274.600 M117.977 275.061 C 117.755 275.644,117.632 276.297,117.704 276.512 C 117.776 276.727,118.035 276.250,118.280 275.451 C 118.794 273.774,118.574 273.490,117.977 275.061 M331.600 276.000 C 331.130 276.660,330.836 277.200,330.946 277.200 C 331.056 277.200,331.530 276.660,332.000 276.000 C 332.470 275.340,332.764 274.800,332.654 274.800 C 332.544 274.800,332.070 275.340,331.600 276.000 M83.923 277.100 C 83.218 277.921,82.690 278.800,82.901 278.800 C 82.983 278.800,83.449 278.260,83.937 277.600 C 84.901 276.296,84.892 275.972,83.923 277.100 M124.428 279.800 C 124.428 280.020,124.686 280.650,125.000 281.200 C 125.314 281.750,125.572 282.020,125.572 281.800 C 125.572 281.580,125.314 280.950,125.000 280.400 C 124.686 279.850,124.428 279.580,124.428 279.800 M159.774 287.324 C 159.663 287.613,159.624 289.908,159.686 292.424 L 159.800 297.000 170.686 297.106 L 181.572 297.213 181.702 301.306 L 181.831 305.400 181.916 301.100 L 182.000 296.800 171.000 296.800 L 160.000 296.800 160.000 292.007 L 160.000 287.214 169.900 287.100 L 179.800 286.985 169.887 286.893 C 162.014 286.819,159.934 286.908,159.774 287.324 M246.100 289.491 C 246.925 289.578,248.275 289.578,249.100 289.491 C 249.925 289.405,249.250 289.334,247.600 289.334 C 245.950 289.334,245.275 289.405,246.100 289.491 M251.390 289.493 C 251.825 289.603,252.419 289.987,252.712 290.347 C 253.171 290.910,253.184 290.876,252.808 290.100 C 252.536 289.539,252.038 289.217,251.486 289.246 C 250.683 289.288,250.674 289.312,251.390 289.493 M333.164 290.733 C 333.380 291.136,333.871 291.721,334.255 292.033 C 334.687 292.384,334.590 292.104,334.001 291.300 C 332.951 289.865,332.557 289.598,333.164 290.733 M60.799 292.900 C 60.210 293.704,60.113 293.984,60.545 293.633 C 61.201 293.100,62.193 291.600,61.889 291.600 C 61.813 291.600,61.322 292.185,60.799 292.900 M100.444 298.044 C 100.198 298.751,100.066 299.400,100.152 299.485 C 100.238 299.571,100.509 299.062,100.756 298.356 C 101.002 297.649,101.134 297.000,101.048 296.915 C 100.962 296.829,100.691 297.338,100.444 298.044 " stroke="none" fill="#7c7c8c" fill-rule="evenodd"></path></g></svg>